<svg xmlns="http://www.w3.org/2000/svg" viewBox="0 0 32 32" width="32" height="32">
  <defs>
    <linearGradient id="brainGradient" x1="0%" y1="0%" x2="100%" y2="100%">
      <stop offset="0%" style="stop-color:#667eea;stop-opacity:1" />
      <stop offset="50%" style="stop-color:#764ba2;stop-opacity:1" />
      <stop offset="100%" style="stop-color:#6B73FF;stop-opacity:1" />
    </linearGradient>
  </defs>
  
  <!-- Brain shape -->
  <path d="M16 4c-3.5 0-6.5 2-8 5-1.5-1-3.5-1-5 0.5S1 12 2 14c-0.5 1.5-0.5 3.5 0.5 5S5 21 6.5 21c0.5 1.5 1.5 2.5 3 3s3.5 0.5 5-0.5c1 0.5 2.5 0.5 3.5 0s2-1.5 2.5-2.5c1.5 0.5 3.5 0 5-1s2.5-2.5 2.5-4c1-1.5 1-3.5 0-5s-2.5-2.5-4-2.5c0.5-1.5 0-3.5-1.5-5S20.5 2 19 2.5C18.5 1.5 17.5 1 16.5 1S15 1.5 15 2.5C15 3 15.5 3.5 16 4z" 
        fill="url(#brainGradient)" stroke="#fff" stroke-width="0.5"/>
  
  <!-- Neural network nodes -->
  <circle cx="10" cy="12" r="1.5" fill="#FFD700"/>
  <circle cx="16" cy="10" r="1.5" fill="#FFD700"/>
  <circle cx="22" cy="14" r="1.5" fill="#FFD700"/>
  <circle cx="14" cy="18" r="1.5" fill="#FFD700"/>
  
  <!-- Neural connections -->
  <line x1="10" y1="12" x2="16" y2="10" stroke="#FFD700" stroke-width="0.8" opacity="0.7"/>
  <line x1="16" y1="10" x2="22" y2="14" stroke="#FFD700" stroke-width="0.8" opacity="0.7"/>
  <line x1="22" y1="14" x2="14" y2="18" stroke="#FFD700" stroke-width="0.8" opacity="0.7"/>
  <line x1="14" y1="18" x2="10" y2="12" stroke="#FFD700" stroke-width="0.8" opacity="0.7"/>
</svg>